<?xml version="1.0" encoding="UTF-8" standalone="no"?>
<!-- Generator: Adobe Illustrator 18.0.0, SVG Export Plug-In . SVG Version: 6.00 Build 0)  -->

<svg
   xmlns:dc="http://purl.org/dc/elements/1.1/"
   xmlns:cc="http://creativecommons.org/ns#"
   xmlns:rdf="http://www.w3.org/1999/02/22-rdf-syntax-ns#"
   xmlns:svg="http://www.w3.org/2000/svg"
   xmlns="http://www.w3.org/2000/svg"
   xmlns:sodipodi="http://sodipodi.sourceforge.net/DTD/sodipodi-0.dtd"
   xmlns:inkscape="http://www.inkscape.org/namespaces/inkscape"
   version="1.1"
   id="Capa_1"
   x="0px"
   y="0px"
   viewBox="0 0 379.99998 309.99998"
   xml:space="preserve"
   sodipodi:docname="calibrations.svg"
   inkscape:version="0.92.4 (5da689c313, 2019-01-14)"
   width="380"
   height="310"><metadata
   id="metadata42"><rdf:RDF><cc:Work
       rdf:about=""><dc:format>image/svg+xml</dc:format><dc:type
         rdf:resource="http://purl.org/dc/dcmitype/StillImage" /><dc:title /></cc:Work></rdf:RDF></metadata><defs
   id="defs40">
	
	
</defs><sodipodi:namedview
   pagecolor="#323232"
   bordercolor="#666666"
   borderopacity="1"
   objecttolerance="10"
   gridtolerance="10"
   guidetolerance="10"
   inkscape:pageopacity="0"
   inkscape:pageshadow="2"
   inkscape:window-width="1920"
   inkscape:window-height="996"
   id="namedview38"
   showgrid="false"
   inkscape:zoom="1.5359183"
   inkscape:cx="153.8938"
   inkscape:cy="188.61185"
   inkscape:window-x="-8"
   inkscape:window-y="-8"
   inkscape:window-maximized="1"
   inkscape:current-layer="Capa_1" />
<rect
   style="opacity:1;fill:#4d4c4c;fill-opacity:1;stroke:#009648;stroke-width:0;stroke-linecap:round;stroke-linejoin:round;stroke-miterlimit:4;stroke-dasharray:none;stroke-opacity:1"
   id="rect858"
   width="355.48764"
   height="274.75421"
   x="12.25618"
   y="17.622894"
   ry="43.622112" />
<g
   id="g7"
   transform="translate(0,2.691683)">
</g>
<g
   id="g9"
   transform="translate(0,2.691683)">
</g>
<g
   id="g11"
   transform="translate(0,2.691683)">
</g>
<g
   id="g13"
   transform="translate(0,2.691683)">
</g>
<g
   id="g15"
   transform="translate(0,2.691683)">
</g>
<g
   id="g17"
   transform="translate(0,2.691683)">
</g>
<g
   id="g19"
   transform="translate(0,2.691683)">
</g>
<g
   id="g21"
   transform="translate(0,2.691683)">
</g>
<g
   id="g23"
   transform="translate(0,2.691683)">
</g>
<g
   id="g25"
   transform="translate(0,2.691683)">
</g>
<g
   id="g27"
   transform="translate(0,2.691683)">
</g>
<g
   id="g29"
   transform="translate(0,2.691683)">
</g>
<g
   id="g31"
   transform="translate(0,2.691683)">
</g>
<g
   id="g33"
   transform="translate(0,2.691683)">
</g>
<g
   id="g35"
   transform="translate(0,2.691683)">
</g>
<g
   transform="matrix(12.899976,0,0,13.062746,43.200288,-5.752952)"
   id="g10"
   style="fill:#ffffff;fill-opacity:1"><g
     id="g8"
     style="fill:#ffffff;fill-opacity:1"><path
       inkscape:connector-curvature="0"
       d="M 17.66,17.66 16.6,18.72 15.89,18.01 16.95,16.95 15.01,15.01 13.95,16.07 13.24,15.36 14.3,14.3 12.36,12.36 11.3,13.42 10.59,12.71 11.65,11.65 9.7,9.7 8.64,10.76 7.93,10.05 8.99,8.99 7.05,7.05 5.99,8.11 5.28,7.4 6.34,6.34 4,4 v 14 c 0,1.1 0.9,2 2,2 H 20 Z M 7,17 V 11.24 L 12.76,17 Z"
       id="path6"
       style="fill:#ffffff;fill-opacity:1" /></g></g></svg>