<?xml version="1.0" encoding="UTF-8" standalone="no"?>
<!-- Generator: Adobe Illustrator 18.0.0, SVG Export Plug-In . SVG Version: 6.00 Build 0)  -->

<svg
   xmlns:dc="http://purl.org/dc/elements/1.1/"
   xmlns:cc="http://creativecommons.org/ns#"
   xmlns:rdf="http://www.w3.org/1999/02/22-rdf-syntax-ns#"
   xmlns:svg="http://www.w3.org/2000/svg"
   xmlns="http://www.w3.org/2000/svg"
   xmlns:sodipodi="http://sodipodi.sourceforge.net/DTD/sodipodi-0.dtd"
   xmlns:inkscape="http://www.inkscape.org/namespaces/inkscape"
   version="1.1"
   id="Capa_1"
   x="0px"
   y="0px"
   viewBox="0 0 379.99998 309.99998"
   xml:space="preserve"
   sodipodi:docname="photo.svg"
   inkscape:version="0.92.4 (5da689c313, 2019-01-14)"
   width="380"
   height="310"><metadata
   id="metadata42"><rdf:RDF><cc:Work
       rdf:about=""><dc:format>image/svg+xml</dc:format><dc:type
         rdf:resource="http://purl.org/dc/dcmitype/StillImage" /><dc:title></dc:title></cc:Work></rdf:RDF></metadata><defs
   id="defs40">
	
	
</defs><sodipodi:namedview
   pagecolor="#323232"
   bordercolor="#666666"
   borderopacity="1"
   objecttolerance="10"
   gridtolerance="10"
   guidetolerance="10"
   inkscape:pageopacity="0"
   inkscape:pageshadow="2"
   inkscape:window-width="1920"
   inkscape:window-height="996"
   id="namedview38"
   showgrid="false"
   inkscape:zoom="1.5359183"
   inkscape:cx="138.71914"
   inkscape:cy="248.75461"
   inkscape:window-x="-8"
   inkscape:window-y="-8"
   inkscape:window-maximized="1"
   inkscape:current-layer="Capa_1" />
<rect
   style="opacity:1;fill:#4d4c4c;fill-opacity:1;stroke:#009648;stroke-width:0;stroke-linecap:round;stroke-linejoin:round;stroke-miterlimit:4;stroke-dasharray:none;stroke-opacity:1"
   id="rect858"
   width="355.48764"
   height="274.75421"
   x="12.25618"
   y="17.622894"
   ry="43.622112" /><path
   inkscape:connector-curvature="0"
   style="fill:#ffffff;fill-opacity:1;stroke-width:0.91211486"
   d="m 143.28529,46.884995 c -0.57478,31.321417 5.44769,27.457863 -23.15739,27.457863 v -5.547511 c 0,-4.486693 -3.63683,-8.125304 -8.12352,-8.125304 H 81.943783 c -4.487605,0 -8.125304,3.638611 -8.125304,8.125304 v 5.547511 h -3.538008 c -11.283774,0 -20.429948,9.146218 -20.429948,20.428167 V 242.68505 c 0,11.28286 9.145305,20.42995 20.428166,20.42995 H 309.71953 c 11.28286,0 20.42995,-9.14709 20.42995,-20.42995 V 94.771025 c 9.1e-4,-11.281949 -9.14709,-20.428167 -20.42995,-20.428167 h -74.19485 l -0.23515,-27.411545 c 0,0 -62.47055,0.459512 -92.00424,-0.04632 z M 75.466342,85.658783 A 12.548828,12.548828 0 0 1 88.015048,98.207489 12.548828,12.548828 0 0 1 75.466342,110.75619 12.548828,12.548828 0 0 1 62.917637,98.207489 12.548828,12.548828 0 0 1 75.466342,85.658783 Z m 114.532768,8.000602 a 75.067439,75.067439 0 0 1 75.06776,75.067765 75.067439,75.067439 0 0 1 -75.06776,75.06776 75.067439,75.067439 0 0 1 -75.06598,-75.06776 75.067439,75.067439 0 0 1 75.06598,-75.067765 z"
   id="path2" /><circle
   cx="189.99971"
   cy="168.72716"
   r="52.021294"
   style="fill:#dadada;fill-opacity:1;stroke-width:1.16802049"
   id="circle4" />
<g
   id="g7"
   transform="translate(0,2.691683)">
</g>
<g
   id="g9"
   transform="translate(0,2.691683)">
</g>
<g
   id="g11"
   transform="translate(0,2.691683)">
</g>
<g
   id="g13"
   transform="translate(0,2.691683)">
</g>
<g
   id="g15"
   transform="translate(0,2.691683)">
</g>
<g
   id="g17"
   transform="translate(0,2.691683)">
</g>
<g
   id="g19"
   transform="translate(0,2.691683)">
</g>
<g
   id="g21"
   transform="translate(0,2.691683)">
</g>
<g
   id="g23"
   transform="translate(0,2.691683)">
</g>
<g
   id="g25"
   transform="translate(0,2.691683)">
</g>
<g
   id="g27"
   transform="translate(0,2.691683)">
</g>
<g
   id="g29"
   transform="translate(0,2.691683)">
</g>
<g
   id="g31"
   transform="translate(0,2.691683)">
</g>
<g
   id="g33"
   transform="translate(0,2.691683)">
</g>
<g
   id="g35"
   transform="translate(0,2.691683)">
</g>
</svg>