<?xml version="1.0" encoding="UTF-8" standalone="no"?>
<!-- Generator: Adobe Illustrator 18.0.0, SVG Export Plug-In . SVG Version: 6.00 Build 0)  -->

<svg
   xmlns:dc="http://purl.org/dc/elements/1.1/"
   xmlns:cc="http://creativecommons.org/ns#"
   xmlns:rdf="http://www.w3.org/1999/02/22-rdf-syntax-ns#"
   xmlns:svg="http://www.w3.org/2000/svg"
   xmlns="http://www.w3.org/2000/svg"
   xmlns:sodipodi="http://sodipodi.sourceforge.net/DTD/sodipodi-0.dtd"
   xmlns:inkscape="http://www.inkscape.org/namespaces/inkscape"
   version="1.1"
   id="Capa_1"
   x="0px"
   y="0px"
   viewBox="0 0 379.99998 309.99998"
   xml:space="preserve"
   sodipodi:docname="record_off.svg"
   inkscape:version="0.92.4 (5da689c313, 2019-01-14)"
   width="380"
   height="310"><metadata
   id="metadata42"><rdf:RDF><cc:Work
       rdf:about=""><dc:format>image/svg+xml</dc:format><dc:type
         rdf:resource="http://purl.org/dc/dcmitype/StillImage" /><dc:title></dc:title></cc:Work></rdf:RDF></metadata><defs
   id="defs40">
	
	
</defs><sodipodi:namedview
   pagecolor="#323232"
   bordercolor="#666666"
   borderopacity="1"
   objecttolerance="10"
   gridtolerance="10"
   guidetolerance="10"
   inkscape:pageopacity="0"
   inkscape:pageshadow="2"
   inkscape:window-width="1920"
   inkscape:window-height="996"
   id="namedview38"
   showgrid="false"
   inkscape:zoom="1.5359183"
   inkscape:cx="172.07668"
   inkscape:cy="187.35644"
   inkscape:window-x="-8"
   inkscape:window-y="-8"
   inkscape:window-maximized="1"
   inkscape:current-layer="Capa_1" />
<rect
   style="opacity:1;fill:#4d4c4c;fill-opacity:1;stroke:#009648;stroke-width:0;stroke-linecap:round;stroke-linejoin:round;stroke-miterlimit:4;stroke-dasharray:none;stroke-opacity:1"
   id="rect858"
   width="355.48764"
   height="274.75421"
   x="13.021525"
   y="18.317818"
   ry="43.622112" />
<g
   id="g7"
   transform="translate(0,2.691683)">
</g>
<g
   id="g9"
   transform="translate(0,2.691683)">
</g>
<g
   id="g11"
   transform="translate(0,2.691683)">
</g>
<g
   id="g13"
   transform="translate(0,2.691683)">
</g>
<g
   id="g15"
   transform="translate(0,2.691683)">
</g>
<g
   id="g17"
   transform="translate(0,2.691683)">
</g>
<g
   id="g19"
   transform="translate(0,2.691683)">
</g>
<g
   id="g21"
   transform="translate(0,2.691683)">
</g>
<g
   id="g23"
   transform="translate(0,2.691683)">
</g>
<g
   id="g25"
   transform="translate(0,2.691683)">
</g>
<g
   id="g27"
   transform="translate(0,2.691683)">
</g>
<g
   id="g29"
   transform="translate(0,2.691683)">
</g>
<g
   id="g31"
   transform="translate(0,2.691683)">
</g>
<g
   id="g33"
   transform="translate(0,2.691683)">
</g>
<g
   id="g35"
   transform="translate(0,2.691683)">
</g>
<g
   transform="matrix(11.207829,0,0,11.207829,55.786245,20.506049)"
   id="g10"
   style="fill:#ffffff;fill-opacity:1"><g
     id="g8"
     style="fill:#ffffff;fill-opacity:1"><path
       inkscape:connector-curvature="0"
       d="M 18.32,4.26 C 16.84,3.05 15.01,2.25 13,2.05 v 2.02 c 1.46,0.18 2.79,0.76 3.9,1.62 z M 19.93,11 h 2.02 c -0.2,-2.01 -1,-3.84 -2.21,-5.32 L 18.31,7.1 c 0.86,1.11 1.44,2.44 1.62,3.9 z m -1.62,5.9 1.43,1.43 c 1.21,-1.48 2.01,-3.32 2.21,-5.32 h -2.02 c -0.18,1.45 -0.76,2.78 -1.62,3.89 z M 13,19.93 v 2.02 c 2.01,-0.2 3.84,-1 5.32,-2.21 l -1.43,-1.43 c -1.1,0.86 -2.43,1.44 -3.89,1.62 z M 13,12 V 7 h -2 v 5 H 7 l 5,5 5,-5 z m -2,7.93 v 2.02 C 5.95,21.45 2,17.19 2,12 2,6.81 5.95,2.55 11,2.05 V 4.07 C 7.05,4.56 4,7.92 4,12 c 0,4.08 3.05,7.44 7,7.93 z"
       id="path6"
       style="fill:#ffffff;fill-opacity:1" /></g></g></svg>