<?xml version="1.0" encoding="UTF-8" standalone="no"?>
<!-- Generator: Adobe Illustrator 18.0.0, SVG Export Plug-In . SVG Version: 6.00 Build 0)  -->

<svg
   xmlns:dc="http://purl.org/dc/elements/1.1/"
   xmlns:cc="http://creativecommons.org/ns#"
   xmlns:rdf="http://www.w3.org/1999/02/22-rdf-syntax-ns#"
   xmlns:svg="http://www.w3.org/2000/svg"
   xmlns="http://www.w3.org/2000/svg"
   xmlns:sodipodi="http://sodipodi.sourceforge.net/DTD/sodipodi-0.dtd"
   xmlns:inkscape="http://www.inkscape.org/namespaces/inkscape"
   version="1.1"
   id="Capa_1"
   x="0px"
   y="0px"
   viewBox="0 0 379.99998 309.99998"
   xml:space="preserve"
   sodipodi:docname="settings.svg"
   inkscape:version="0.92.4 (5da689c313, 2019-01-14)"
   width="380"
   height="310"><metadata
   id="metadata42"><rdf:RDF><cc:Work
       rdf:about=""><dc:format>image/svg+xml</dc:format><dc:type
         rdf:resource="http://purl.org/dc/dcmitype/StillImage" /><dc:title></dc:title></cc:Work></rdf:RDF></metadata><defs
   id="defs40">
	
	
</defs><sodipodi:namedview
   pagecolor="#323232"
   bordercolor="#666666"
   borderopacity="1"
   objecttolerance="10"
   gridtolerance="10"
   guidetolerance="10"
   inkscape:pageopacity="0"
   inkscape:pageshadow="2"
   inkscape:window-width="1920"
   inkscape:window-height="996"
   id="namedview38"
   showgrid="false"
   inkscape:zoom="1.0860582"
   inkscape:cx="121.57873"
   inkscape:cy="217.11619"
   inkscape:window-x="-8"
   inkscape:window-y="-8"
   inkscape:window-maximized="1"
   inkscape:current-layer="Capa_1" />
<rect
   style="opacity:1;fill:#4d4c4c;fill-opacity:1;stroke:#009648;stroke-width:0;stroke-linecap:round;stroke-linejoin:round;stroke-miterlimit:4;stroke-dasharray:none;stroke-opacity:1"
   id="rect858"
   width="355.48764"
   height="274.75421"
   x="13.021525"
   y="18.317818"
   ry="43.622112" />
<g
   id="g7"
   transform="translate(0,2.691683)">
</g>
<g
   id="g9"
   transform="translate(0,2.691683)">
</g>
<g
   id="g11"
   transform="translate(0,2.691683)">
</g>
<g
   id="g13"
   transform="translate(0,2.691683)">
</g>
<g
   id="g15"
   transform="translate(0,2.691683)">
</g>
<g
   id="g17"
   transform="translate(0,2.691683)">
</g>
<g
   id="g19"
   transform="translate(0,2.691683)">
</g>
<g
   id="g21"
   transform="translate(0,2.691683)">
</g>
<g
   id="g23"
   transform="translate(0,2.691683)">
</g>
<g
   id="g25"
   transform="translate(0,2.691683)">
</g>
<g
   id="g27"
   transform="translate(0,2.691683)">
</g>
<g
   id="g29"
   transform="translate(0,2.691683)">
</g>
<g
   id="g31"
   transform="translate(0,2.691683)">
</g>
<g
   id="g33"
   transform="translate(0,2.691683)">
</g>
<g
   id="g35"
   transform="translate(0,2.691683)">
</g>
<path
   d="m 270.13607,121.77219 c -1.45171,-3.44081 -3.0326,-6.87384 -4.94332,-10.18333 -1.91073,-3.30947 -4.09339,-6.39508 -6.34736,-9.3727 l 11.62817,-28.843506 c 1.03692,-2.604464 0.0252,-5.63062 -2.5022,-7.113177 L 227.85127,43.090096 c -2.49844,-1.432395 -5.62703,-0.829566 -7.36236,1.375789 L 201.33642,68.96203 C 193.88455,67.982587 186.27866,67.894403 178.68467,68.869 L 159.58022,44.464205 c -1.81198,-2.096229 -4.93903,-2.764544 -7.4462,-1.317026 l -40.11487,23.16033 c -2.50717,1.447518 -3.49192,4.489773 -2.53238,7.078154 L 121.06972,102.133 c -4.64105,6.08931 -8.39652,12.67018 -11.24532,19.66352 l -30.790508,4.33846 c -2.748611,0.45032 -4.863918,2.80819 -4.872655,5.6881 l 0.0052,46.32971 c -0.0088,2.87991 2.106175,5.26922 4.90909,5.72355 l 30.743163,4.38041 c 1.4517,3.44081 3.0326,6.87385 4.94332,10.18332 1.91073,3.30949 4.09339,6.39509 6.34735,9.37272 l -11.57803,28.81456 c -1.03691,2.60446 -0.0252,5.63062 2.50221,7.11317 l 40.12009,23.16938 c 2.49845,1.43239 5.62702,0.82957 7.36237,-1.37579 l 19.15243,-24.49619 c 7.4519,0.97948 15.05778,1.06768 22.6518,0.0931 l 19.10445,24.40478 c 1.76182,2.12519 4.88887,2.7935 7.39605,1.34599 l 40.11487,-23.16034 c 2.50717,-1.44751 3.49192,-4.48977 2.53236,-7.07814 L 258.88505,207.896 c 4.64101,-6.0893 8.3965,-12.67018 11.24527,-19.66356 l 30.79054,-4.33841 c 2.74862,-0.45033 4.86393,-2.80819 4.87264,-5.68809 l -0.006,-46.32971 c 0.009,-2.87992 -2.10618,-5.26923 -4.90909,-5.72357 z m -59.89339,68.3428 c -19.40557,11.20381 -44.162,4.57033 -55.3658,-14.83523 -11.20381,-19.40555 -4.57035,-44.16199 14.83522,-55.3658 19.40556,-11.20381 44.16198,-4.57032 55.36578,14.83523 11.20381,19.40556 4.57036,44.16199 -14.8352,55.3658 z"
   id="path4"
   style="fill:#fdfdfd;fill-opacity:1;stroke-width:5.79008055"
   inkscape:connector-curvature="0" /><circle
   style="opacity:1;fill:#4d4c4c;fill-opacity:1;stroke:#009648;stroke-width:0;stroke-linecap:round;stroke-linejoin:round;stroke-miterlimit:4;stroke-dasharray:none;stroke-opacity:1"
   id="path1010"
   cx="190"
   cy="155"
   r="61.862511" /><circle
   r="40.053101"
   cy="155"
   cx="190"
   id="circle1012"
   style="opacity:1;fill:#dbdbdb;fill-opacity:1;stroke:#009648;stroke-width:0;stroke-linecap:round;stroke-linejoin:round;stroke-miterlimit:4;stroke-dasharray:none;stroke-opacity:1" /></svg>